# xmcd
# 
# Track frame offsets:
#     150
#     13951
#     27176
#     40811
#     53964
#     68084
#     81438
#     94963
#     108643
#     121482
#     135250
#     147970
#     161861
#     174833
#     186628
#     200460
#     214318
#     226993
#     239715
#     253238
#     265975
#     279302
#     291722
# 
# Disc length: 4080
# 
# Revision: 0
# Processed by: cddbd v1.5.2PL0 Copyright (c) Steve Scherf et al.
# Submitted via: fre:ac v1.0.17
# 
DISCID=6e0fee17
DTITLE=Blind Lemon Jefferson - The Best Of Blind Lemon Jefferson
DYEAR=0
DGENRE=Blues
TTITLE0=Bed Spring Blues
TTITLE1=Beggin Back
TTITLE2=Black Horse Blues
TTITLE3=Booster Blues
TTITLE4=Corinna Blues
TTITLE5=Dry Southern Blues
TTITLE6=Easy Rider Blues
TTITLE7=Got The Blues
TTITLE8=He Arose From The Dead
TTITLE9=Hot Dogs
TTITLE10=How Long How Long
TTITLE11=I Want To Be Like Jesus In My
TTITLE12=Jack 'O Diamond Blues
TTITLE13='Lectric Chair Blues
TTITLE14=Long Lonesome Blues
TTITLE15=Match Box Blues
TTITLE16=One Dime Blues
TTITLE17=Prison Cell Blues
TTITLE18=Rabbit Foot Blues
TTITLE19=Rambler Blues
TTITLE20=See That My Grave's Kept Clean
TTITLE21=That Crawlin' Baby Blues
TTITLE22=Wartime Blues
EXTD=
EXTT0=
EXTT1=
EXTT2=
EXTT3=
EXTT4=
EXTT5=
EXTT6=
EXTT7=
EXTT8=
EXTT9=
EXTT10=
EXTT11=
EXTT12=
EXTT13=
EXTT14=
EXTT15=
EXTT16=
EXTT17=
EXTT18=
EXTT19=
EXTT20=
EXTT21=
EXTT22=
PLAYORDER=
